<svg width="17" height="17" viewBox="0 0 17 17" fill="currentColor" stroke="currentColor" xmlns="http://www.w3.org/2000/svg">
<path fill-rule="evenodd" clip-rule="evenodd" d="M10.0938 5.3125C10.387 5.3125 10.625 5.07503 10.625 4.78125V2.65625C10.625 2.36247 10.387 2.125 10.0938 2.125C9.8005 2.125 9.5625 2.36247 9.5625 2.65625V4.78125C9.5625 5.07503 9.8005 5.3125 10.0938 5.3125ZM15.9375 14.875C15.9375 15.4615 15.4615 15.9375 14.875 15.9375H2.125C1.5385 15.9375 1.0625 15.4615 1.0625 14.875V2.125C1.0625 1.5385 1.5385 1.0625 2.125 1.0625H3.1875V6.375C3.1875 6.9615 3.6635 7.4375 4.25 7.4375H12.75C13.3365 7.4375 13.8125 6.9615 13.8125 6.375V1.0625H14.875C15.4615 1.0625 15.9375 1.5385 15.9375 2.125V14.875ZM4.25 1.0625H12.75V5.84375C12.75 6.13753 12.512 6.375 12.2188 6.375H4.78125C4.488 6.375 4.25 6.13753 4.25 5.84375V1.0625ZM14.875 0H2.125C0.951469 0 0 0.951469 0 2.125V14.875C0 16.0485 0.951469 17 2.125 17H14.875C16.0485 17 17 16.0485 17 14.875V2.125C17 0.951469 16.0485 0 14.875 0Z"/>
</svg>
